Coordinates
version=1
nRows=65
nColumns=12
inDegrees=yes

Units are S.I. units (second, meters, Newtons, ...)
Angles are in degrees

endheader
time	SC_y	SC_z	SC_x	AC_y	AC_z	AC_x	GH_y	GH_z	GH_yy	EL_x	PS_y
       0.0              -45.33          38.64          21.76          41.48          -17.7         -5.849          54.64          62.64         -49.92          43.33          56.28
    0.0439              -45.32          38.63          21.76          41.49          -17.7         -5.845          54.65          62.63         -49.92          43.32          56.28
    0.0878              -45.32          38.63          21.76          41.49         -17.71         -5.842          54.66          62.62         -49.92          43.32          56.29
    0.1317              -45.32          38.62          21.77          41.49         -17.71         -5.838          54.67          62.61         -49.93          43.31          56.29
    0.1756              -45.31          38.62          21.77          41.49         -17.71         -5.834          54.67           62.6         -49.93          43.31           56.3
    0.2195              -45.31          38.61          21.78          41.49         -17.71          -5.83          54.68          62.59         -49.93           43.3           56.3
    0.2634               -45.3          38.61          21.78          41.49         -17.71         -5.826          54.69          62.58         -49.94          43.29          56.31
    0.3073               -45.3           38.6          21.79          41.49         -17.71         -5.821           54.7          62.57         -49.94          43.29          56.32
    0.3512              -45.29          38.59          21.79          41.49         -17.71         -5.816          54.71          62.55         -49.94          43.28          56.32
    0.3951              -45.29          38.59           21.8          41.49         -17.71         -5.811          54.73          62.54         -49.95          43.27          56.33
     0.439              -45.28          38.58           21.8           41.5         -17.71         -5.805          54.74          62.52         -49.95          43.27          56.34
    0.4829              -45.28          38.57          21.81           41.5         -17.71         -5.799          54.75          62.51         -49.96          43.26          56.35
    0.5268              -45.27          38.56          21.82           41.5         -17.71         -5.792          54.77          62.49         -49.96          43.25          56.36
    0.5707              -45.26          38.55          21.82           41.5         -17.71         -5.785          54.78          62.47         -49.97          43.24          56.37
    0.6146              -45.25          38.54          21.83           41.5         -17.71         -5.777           54.8          62.45         -49.97          43.23          56.38
    0.6585              -45.25          38.53          21.84          41.51         -17.71         -5.768          54.82          62.43         -49.98          43.21          56.39
    0.7024              -45.24          38.52          21.85          41.51         -17.71         -5.759          54.84           62.4         -49.99           43.2           56.4
    0.7463              -45.23           38.5          21.86          41.51         -17.71         -5.749          54.86          62.38          -50.0          43.19          56.42
    0.7902              -45.22          38.49          21.87          41.51         -17.72         -5.738          54.88          62.35          -50.0          43.17          56.43
    0.8341               -45.2          38.47          21.89          41.52         -17.72         -5.726          54.91          62.31         -50.01          43.15          56.45
     0.878              -45.19          38.45           21.9          41.52         -17.72         -5.712          54.94          62.28         -50.02          43.14          56.47
    0.9219              -45.18          38.43          21.92          41.53         -17.72         -5.698          54.97          62.24         -50.04          43.12          56.49
    0.9658              -45.16          38.41          21.93          41.53         -17.72         -5.681           55.0           62.2         -50.05          43.09          56.51
      1.01              -45.14          38.39          21.95          41.54         -17.72         -5.663          55.04          62.15         -50.06          43.07          56.54
     1.054              -45.12          38.36          21.97          41.54         -17.72         -5.644          55.09           62.1         -50.08          43.04          56.56
     1.098               -45.1          38.33           22.0          41.55         -17.73         -5.621          55.13          62.04         -50.09          43.01          56.59
     1.141              -45.08           38.3          22.02          41.55         -17.73         -5.596          55.19          61.97         -50.11          42.97          56.63
     1.185              -45.05          38.26          22.05          41.56         -17.73         -5.568          55.25           61.9         -50.14          42.94          56.67
     1.229              -45.02          38.22          22.08          41.57         -17.73         -5.537          55.32          61.82         -50.16          42.89          56.71
     1.273              -44.98          38.17          22.12          41.58         -17.74         -5.501          55.39          61.72         -50.19          42.84          56.76
     1.317              -44.94          38.11          22.17          41.59         -17.74          -5.46          55.48          61.62         -50.22          42.78          56.82
     1.361               -44.9          38.05          22.21           41.6         -17.75         -5.413          55.58          61.49         -50.26          42.72          56.88
     1.405              -44.84          37.98          22.27          41.62         -17.75         -5.358           55.7          61.35          -50.3          42.64          56.96
     1.449              -44.78          37.89          22.34          41.64         -17.76         -5.295          55.84          61.18         -50.35          42.55          57.05
     1.493              -44.71          37.79          22.42          41.66         -17.76         -5.221           56.0          60.99          -50.4          42.45          57.15
     1.537              -44.62          37.68          22.51          41.68         -17.77         -5.134          56.18          60.76         -50.47          42.33          57.27
      1.58              -44.52          37.54          22.62          41.71         -17.78         -5.031          56.41          60.49         -50.55          42.19          57.41
     1.624               -44.4          37.37          22.75          41.74         -17.79         -4.907          56.67          60.16         -50.65          42.01          57.58
     1.668              -44.25          37.17           22.9          41.78         -17.81         -4.757           57.0          59.77         -50.76           41.8          57.79
     1.712              -44.07          36.92           23.1          41.83         -17.82         -4.573          57.39          59.28          -50.9          41.55          58.05
     1.756              -43.84          36.61          23.33           41.9         -17.84         -4.347          57.88          58.69         -51.08          41.23          58.36
       1.8              -43.57          36.23          23.63          41.97         -17.87         -4.065          58.49          57.95          -51.3          40.84          58.75
     1.844              -43.21          35.76           24.0          42.07          -17.9          -3.71          59.25          57.01         -51.57          40.34          59.24
     1.888              -42.77          35.15          24.48           42.2         -17.95         -3.258          60.23          55.82         -51.92          39.71          59.87
     1.932               -42.2          34.37          25.09          42.36          -18.0         -2.679          61.47           54.3         -52.37          38.91          60.67
     1.976              -41.47          33.37          25.87          42.56         -18.07         -1.937          63.07          52.35         -52.94          37.87           61.7
     2.019              -40.53          32.09          26.86          42.82         -18.16        -0.9893          65.11          49.86         -53.68          36.55          63.02
     2.063              -39.35          30.48          28.11          43.15         -18.27         0.2027          67.68          46.72          -54.6          34.89          64.67
     2.107              -37.92          28.53          29.64          43.55          -18.4          1.655          70.81           42.9         -55.72          32.87          66.68
     2.151              -36.26          26.26          31.41          44.01         -18.56          3.339          74.44          38.47         -57.02          30.52          69.02
     2.195              -34.46           23.8          33.32          44.51         -18.73          5.162          78.37          33.68         -58.43          27.98          71.55
     2.239              -32.66          21.34          35.24          45.01          -18.9          6.985           82.3          28.88         -59.84          25.44          74.08
     2.283               -31.0          19.07          37.01          45.47         -19.06          8.669          85.92          24.46         -61.14          23.09          76.41
     2.327              -29.57          17.12          38.53          45.87         -19.19          10.12          89.05          20.64         -62.26          21.07          78.43
     2.371              -28.39          15.51          39.78           46.2          -19.3          11.31          91.62           17.5         -63.19           19.4          80.08
     2.415              -27.45          14.23          40.78          46.46         -19.39          12.26          93.66          15.01         -63.92          18.08          81.39
     2.458              -26.72          13.23          41.56          46.66         -19.46           13.0          95.26          13.06         -64.49          17.05          82.42
     2.502              -26.15          12.45          42.17          46.82         -19.51          13.58          96.51          11.53         -64.94          16.24          83.23
     2.546               -25.7          11.85          42.64          46.95         -19.56          14.03          97.48          10.35         -65.29          15.61          83.85
      2.59              -25.35          11.37          43.01          47.05         -19.59          14.39          98.25          9.412         -65.56          15.12          84.34
     2.634              -25.08          10.99          43.31          47.12         -19.62          14.67          98.86           8.67         -65.78          14.72          84.74
     2.678              -24.85          10.68          43.55          47.19         -19.64           14.9          99.34          8.075         -65.96          14.41          85.05
     2.722              -24.67          10.43          43.74          47.24         -19.65          15.08          99.74          7.593          -66.1          14.15           85.3
     2.766              -24.52          10.23           43.9          47.28         -19.67          15.23          100.1          7.198         -66.21          13.94          85.51
      2.81               -24.4          10.06          44.03          47.31         -19.68          15.36          100.3          6.872         -66.31          13.77          85.68
